# xmcd
# 
# Track frame offsets:
#     150
#     10857
#     16135
#     21817
#     27867
#     37122
#     45873
#     59236
#     63976
#     68312
#     76175
#     81050
#     103664
#     111852
#     122577
#     129836
#     134271
#     140096
#     145801
#     157572
#     162582
#     167172
# 
# Disc length: 2800
# 
# Revision: 2
# Processed by: cddbd v1.5.2PL0 Copyright (c) Steve Scherf et al.
# Submitted via: fre:ac v1.0.31
# 
DISCID=160aee16
DTITLE=Fallen Christ - Abduction Ritual
DYEAR=1996
DGENRE=Black Metal
TTITLE0=In the Name of Satan
TTITLE1=Blaspheming Invocation
TTITLE2=Evil Larvae
TTITLE3=Torment of the Wicked
TTITLE4=Fallen Christ
TTITLE5=World of Darkness
TTITLE6=Abduction Ritual
TTITLE7=Awaken the Ritual
TTITLE8=Burn of the Altar
TTITLE9=God of Fire
TTITLE10=Slave to Evil
TTITLE11=Satanas (Luciferions)
TTITLE12=Kill of the Newborn
TTITLE13=No Maker No God
TTITLE14=Command Us Satan
TTITLE15=Gate of Sacrifice
TTITLE16=Altar of Pain
TTITLE17=Heaven in Fames
TTITLE18=Tiamat Massa
TTITLE19=Ceremony of the Stifling Air
TTITLE20=Infernal Majesty
TTITLE21=Luciferions (Hate, Eternal Darkness Everywhere - Mix)
EXTD=
EXTT0=
EXTT1=
EXTT2=
EXTT3=
EXTT4=
EXTT5=
EXTT6=
EXTT7=
EXTT8=
EXTT9=
EXTT10=
EXTT11=
EXTT12=
EXTT13=
EXTT14=
EXTT15=
EXTT16=
EXTT17=
EXTT18=
EXTT19=
EXTT20=
EXTT21=
PLAYORDER=
